<svg width="29" height="29" viewBox="0 0 29 29" fill="none" xmlns="http://www.w3.org/2000/svg">
<path d="M14.5 29C22.5081 29 29 22.5081 29 14.5C29 6.49186 22.5081 0 14.5 0C6.49186 0 0 6.49186 0 14.5C0 22.5081 6.49186 29 14.5 29ZM13.4643 9.32143C13.4643 9.04674 13.5734 8.7833 13.7676 8.58907C13.9619 8.39483 14.2253 8.28571 14.5 8.28571C14.7747 8.28571 15.0381 8.39483 15.2324 8.58907C15.4266 8.7833 15.5357 9.04674 15.5357 9.32143V13.4643H19.6786C19.9533 13.4643 20.2167 13.5734 20.4109 13.7676C20.6052 13.9619 20.7143 14.2253 20.7143 14.5C20.7143 14.7747 20.6052 15.0381 20.4109 15.2324C20.2167 15.4266 19.9533 15.5357 19.6786 15.5357H15.5357V19.6786C15.5357 19.9533 15.4266 20.2167 15.2324 20.4109C15.0381 20.6052 14.7747 20.7143 14.5 20.7143C14.2253 20.7143 13.9619 20.6052 13.7676 20.4109C13.5734 20.2167 13.4643 19.9533 13.4643 19.6786V15.5357H9.32143C9.04674 15.5357 8.7833 15.4266 8.58907 15.2324C8.39483 15.0381 8.28571 14.7747 8.28571 14.5C8.28571 14.2253 8.39483 13.9619 8.58907 13.7676C8.7833 13.5734 9.04674 13.4643 9.32143 13.4643H13.4643V9.32143Z" fill="#FF7749"/>
<path d="M14.5 29C22.5081 29 29 22.5081 29 14.5C29 6.49186 22.5081 0 14.5 0C6.49186 0 0 6.49186 0 14.5C0 22.5081 6.49186 29 14.5 29ZM13.4643 9.32143C13.4643 9.04674 13.5734 8.7833 13.7676 8.58907C13.9619 8.39483 14.2253 8.28571 14.5 8.28571C14.7747 8.28571 15.0381 8.39483 15.2324 8.58907C15.4266 8.7833 15.5357 9.04674 15.5357 9.32143V13.4643H19.6786C19.9533 13.4643 20.2167 13.5734 20.4109 13.7676C20.6052 13.9619 20.7143 14.2253 20.7143 14.5C20.7143 14.7747 20.6052 15.0381 20.4109 15.2324C20.2167 15.4266 19.9533 15.5357 19.6786 15.5357H15.5357V19.6786C15.5357 19.9533 15.4266 20.2167 15.2324 20.4109C15.0381 20.6052 14.7747 20.7143 14.5 20.7143C14.2253 20.7143 13.9619 20.6052 13.7676 20.4109C13.5734 20.2167 13.4643 19.9533 13.4643 19.6786V15.5357H9.32143C9.04674 15.5357 8.7833 15.4266 8.58907 15.2324C8.39483 15.0381 8.28571 14.7747 8.28571 14.5C8.28571 14.2253 8.39483 13.9619 8.58907 13.7676C8.7833 13.5734 9.04674 13.4643 9.32143 13.4643H13.4643V9.32143Z" fill="url(#paint0_linear)"/>
<defs>
<linearGradient id="paint0_linear" x1="27.3889" y1="1.89131" x2="7.67494" y2="33.7493" gradientUnits="userSpaceOnUse">
<stop stop-color="#F52872" stop-opacity="0.3"/>
<stop offset="1" stop-color="#FF7749" stop-opacity="0"/>
</linearGradient>
</defs>
</svg>
