<svg width="12" height="11" viewBox="0 0 12 11" fill="none" xmlns="http://www.w3.org/2000/svg">
<path fill-rule="evenodd" clip-rule="evenodd" d="M6.26163 1.00778C6.33077 0.942012 6.4129 0.889829 6.50332 0.854225C6.59374 0.81862 6.69068 0.800293 6.78858 0.800293C6.88648 0.800293 6.98341 0.81862 7.07383 0.854225C7.16426 0.889829 7.24639 0.942012 7.31553 1.00778L11.7812 5.24537C11.8505 5.31098 11.9055 5.38892 11.943 5.47472C11.9805 5.56053 11.9999 5.65251 11.9999 5.74541C11.9999 5.83831 11.9805 5.93029 11.943 6.0161C11.9055 6.1019 11.8505 6.17984 11.7812 6.24544L7.31553 10.483C7.17577 10.6157 6.98622 10.6902 6.78858 10.6902C6.59093 10.6902 6.40138 10.6157 6.26163 10.483C6.12187 10.3504 6.04336 10.1705 6.04336 9.983C6.04336 9.79545 6.12187 9.61558 6.26163 9.48296L10.2018 5.74541L6.26163 2.00786C6.19232 1.94225 6.13733 1.86431 6.0998 1.77851C6.06228 1.6927 6.04297 1.60072 6.04297 1.50782C6.04297 1.41492 6.06228 1.32294 6.0998 1.23713C6.13733 1.15133 6.19232 1.07339 6.26163 1.00778Z" fill="#242424"/>
<path fill-rule="evenodd" clip-rule="evenodd" d="M0.0898438 5.74387C0.0898437 5.55655 0.168259 5.37691 0.307838 5.24446C0.447417 5.11201 0.636727 5.0376 0.834122 5.0376L10.5097 5.0376C10.7071 5.0376 10.8964 5.11201 11.036 5.24446C11.1756 5.37691 11.254 5.55655 11.254 5.74387C11.254 5.93118 11.1756 6.11082 11.036 6.24327C10.8964 6.37572 10.7071 6.45013 10.5097 6.45013L0.834122 6.45013C0.636727 6.45013 0.447417 6.37572 0.307838 6.24327C0.168259 6.11082 0.0898437 5.93118 0.0898438 5.74387Z" fill="#242424"/>
</svg>
