<svg width="16" height="16" viewBox="0 0 16 16" fill="none" xmlns="http://www.w3.org/2000/svg">
<path d="M11.2 0H4.8C2.1528 0 0 2.1528 0 4.8V15.2C0 15.4122 0.0842854 15.6157 0.234315 15.7657C0.384344 15.9157 0.587827 16 0.8 16H11.2C13.8472 16 16 13.8472 16 11.2V4.8C16 2.1528 13.8472 0 11.2 0Z" fill="#FF7749"/>
<path d="M11.2 0H4.8C2.1528 0 0 2.1528 0 4.8V15.2C0 15.4122 0.0842854 15.6157 0.234315 15.7657C0.384344 15.9157 0.587827 16 0.8 16H11.2C13.8472 16 16 13.8472 16 11.2V4.8C16 2.1528 13.8472 0 11.2 0Z" fill="url(#paint0_linear)"/>
<path d="M10.9706 4.96999C11.1115 4.83588 11.299 4.76173 11.4935 4.76321C11.688 4.76468 11.8743 4.84165 12.0131 4.97787C12.1519 5.1141 12.2324 5.29893 12.2375 5.49336C12.2427 5.68779 12.1721 5.87661 12.0406 6.01999L8.05065 11.01C7.98204 11.0839 7.89923 11.1432 7.80718 11.1844C7.71513 11.2255 7.61572 11.2477 7.5149 11.2496C7.41408 11.2514 7.31392 11.2329 7.2204 11.1952C7.12689 11.1575 7.04194 11.1013 6.97065 11.03L4.32465 8.38399C4.25096 8.31532 4.19186 8.23252 4.15086 8.14052C4.10987 8.04853 4.08783 7.94921 4.08605 7.84851C4.08428 7.74781 4.1028 7.64778 4.14052 7.55439C4.17824 7.461 4.23439 7.37617 4.30561 7.30495C4.37683 7.23373 4.46166 7.17758 4.55505 7.13986C4.64844 7.10214 4.74847 7.08362 4.84917 7.08539C4.94987 7.08717 5.04918 7.10921 5.14118 7.15021C5.23318 7.1912 5.31598 7.2503 5.38465 7.32399L7.47865 9.41699L10.9516 4.99199C10.9579 4.98429 10.9646 4.97694 10.9716 4.96999H10.9706Z" fill="white"/>
<defs>
<linearGradient id="paint0_linear" x1="15.1111" y1="1.04348" x2="4.23445" y2="18.6203" gradientUnits="userSpaceOnUse">
<stop stop-color="#F52872" stop-opacity="0.3"/>
<stop offset="1" stop-color="#FF7749" stop-opacity="0"/>
</linearGradient>
</defs>
</svg>
