<svg width="15" height="14" viewBox="0 0 15 14" fill="none" xmlns="http://www.w3.org/2000/svg">
<path d="M0.5 4.05069V4.05061C0.499919 3.57883 0.593875 3.11177 0.776376 2.67672C0.958877 2.24168 1.22626 1.84737 1.56291 1.51685C1.89955 1.18633 2.29869 0.92622 2.73702 0.751732C3.17534 0.577243 3.64405 0.491872 4.11574 0.500609L4.11574 0.500751L4.12766 0.500687C4.69352 0.497682 5.25357 0.614979 5.77067 0.844803C6.28778 1.07463 6.75013 1.41173 7.12709 1.83377L7.5 2.25127L7.87291 1.83377C8.24987 1.41173 8.71222 1.07463 9.22933 0.844803C9.74643 0.614979 10.3065 0.497682 10.8723 0.500687L10.8723 0.50083L10.8843 0.500609C11.356 0.491872 11.8247 0.577243 12.263 0.751732C12.7013 0.92622 13.1005 1.18633 13.4371 1.51685C13.7737 1.84737 14.0411 2.24168 14.2236 2.67672C14.4061 3.11177 14.5001 3.57883 14.5 4.05061V4.05069C14.5 5.85592 13.4229 7.49603 11.912 9.03136C11.163 9.79247 10.3267 10.5088 9.49953 11.1907C9.26386 11.385 9.02775 11.5774 8.79458 11.7675C8.34448 12.1343 7.90535 12.4922 7.50159 12.8372C7.07849 12.4725 6.6166 12.0948 6.1436 11.7081C5.93156 11.5347 5.71728 11.3595 5.50327 11.1828C4.67595 10.4998 3.83931 9.78431 3.08981 9.02448C1.57801 7.49183 0.5 5.85692 0.5 4.05069Z" stroke="white"/>
</svg>
