<svg width="25" height="23" viewBox="0 0 25 23" fill="none" xmlns="http://www.w3.org/2000/svg">
<path d="M9.9256e-08 6.75116C-0.000153728 5.85412 0.178494 4.96604 0.525504 4.13884C0.872513 3.31164 1.38092 2.5619 2.02102 1.93344C2.66111 1.30499 3.42005 0.810418 4.25348 0.478644C5.08691 0.14687 5.97811 -0.0154543 6.875 0.00115759C7.9362 -0.00447803 8.98649 0.215494 9.95624 0.646496C10.926 1.0775 11.7931 1.70968 12.5 2.50116C13.2069 1.70968 14.074 1.0775 15.0438 0.646496C16.0135 0.215494 17.0638 -0.00447803 18.125 0.00115759C19.0219 -0.0154543 19.9131 0.14687 20.7465 0.478644C21.5799 0.810418 22.3389 1.30499 22.979 1.93344C23.6191 2.5619 24.1275 3.31164 24.4745 4.13884C24.8215 4.96604 25.0002 5.85412 25 6.75116C25 13.4462 17.0263 18.5012 12.5 22.5012C7.98375 18.4674 9.9256e-08 13.4512 9.9256e-08 6.75116Z" fill="black"/>
</svg>
