<svg width="28" height="29" viewBox="0 0 28 29" fill="none" xmlns="http://www.w3.org/2000/svg">
<path fill-rule="evenodd" clip-rule="evenodd" d="M27.9164 4.22152C28.2445 3.61064 27.5006 3.79591 27.5006 3.79591C27.5006 3.79591 22.5413 8.55648 21.852 7.97313C21.1627 7.38979 26.7078 2.82709 26.0516 1.97447C25.4445 1.17972 20.5728 6.85357 19.9876 6.16056C19.408 5.46894 24.1592 0.503036 24.1592 0.503036C24.1592 0.503036 24.3398 -0.24458 23.7336 0.0830271C16.2635 4.10018 15.312 7.84526 15.312 7.84526C15.312 7.84526 15.0548 8.57468 15.613 9.13842C15.6676 9.18742 1.98415 22.7934 0.152447 24.6302C-0.738905 25.5206 2.53157 28.7374 3.41732 27.847C5.24949 26.0102 18.8288 12.3053 18.8778 12.3562C19.4411 12.9185 20.1687 12.6604 20.1687 12.6604C20.1687 12.6604 23.9077 11.7061 27.9164 4.22152" fill="#FF7749"/>
<path fill-rule="evenodd" clip-rule="evenodd" d="M27.9164 4.22152C28.2445 3.61064 27.5006 3.79591 27.5006 3.79591C27.5006 3.79591 22.5413 8.55648 21.852 7.97313C21.1627 7.38979 26.7078 2.82709 26.0516 1.97447C25.4445 1.17972 20.5728 6.85357 19.9876 6.16056C19.408 5.46894 24.1592 0.503036 24.1592 0.503036C24.1592 0.503036 24.3398 -0.24458 23.7336 0.0830271C16.2635 4.10018 15.312 7.84526 15.312 7.84526C15.312 7.84526 15.0548 8.57468 15.613 9.13842C15.6676 9.18742 1.98415 22.7934 0.152447 24.6302C-0.738905 25.5206 2.53157 28.7374 3.41732 27.847C5.24949 26.0102 18.8288 12.3053 18.8778 12.3562C19.4411 12.9185 20.1687 12.6604 20.1687 12.6604C20.1687 12.6604 23.9077 11.7061 27.9164 4.22152" fill="url(#paint0_linear)"/>
<path fill-rule="evenodd" clip-rule="evenodd" d="M14.0117 17.9686C17.653 21.6178 23.7919 27.7679 23.7919 27.7679C23.7919 27.7679 26.4714 26.891 26.849 24.6278L17.1075 14.8672C16.0746 15.9 15.0427 16.9338 14.0117 17.9686" fill="#FF7749"/>
<path fill-rule="evenodd" clip-rule="evenodd" d="M14.0117 17.9686C17.653 21.6178 23.7919 27.7679 23.7919 27.7679C23.7919 27.7679 26.4714 26.891 26.849 24.6278L17.1075 14.8672C16.0746 15.9 15.0427 16.9338 14.0117 17.9686" fill="url(#paint1_linear)"/>
<path fill-rule="evenodd" clip-rule="evenodd" d="M9.22147 14.8069C10.5276 13.5018 11.8322 12.1952 13.1353 10.887L2.54783 0.279466C2.54783 0.279466 2.3565 0.0788039 1.93511 0.502061C1.0984 1.33597 -0.520431 6.64932 6.34267 13.5227C7.43045 14.6128 8.37683 14.764 9.22147 14.8069" fill="#FF7749"/>
<path fill-rule="evenodd" clip-rule="evenodd" d="M9.22147 14.8069C10.5276 13.5018 11.8322 12.1952 13.1353 10.887L2.54783 0.279466C2.54783 0.279466 2.3565 0.0788039 1.93511 0.502061C1.0984 1.33597 -0.520431 6.64932 6.34267 13.5227C7.43045 14.6128 8.37683 14.764 9.22147 14.8069" fill="url(#paint2_linear)"/>
<defs>
<linearGradient id="paint0_linear" x1="26.4444" y1="1.82617" x2="7.40904" y2="32.5862" gradientUnits="userSpaceOnUse">
<stop stop-color="#F52872" stop-opacity="0.3"/>
<stop offset="1" stop-color="#FF7749" stop-opacity="0"/>
</linearGradient>
<linearGradient id="paint1_linear" x1="26.1358" y1="15.7085" x2="17.3468" y2="29.8418" gradientUnits="userSpaceOnUse">
<stop stop-color="#F52872" stop-opacity="0.3"/>
<stop offset="1" stop-color="#FF7749" stop-opacity="0"/>
</linearGradient>
<linearGradient id="paint2_linear" x1="12.4694" y1="1.18248" x2="1.83146" y2="15.3208" gradientUnits="userSpaceOnUse">
<stop stop-color="#F52872" stop-opacity="0.3"/>
<stop offset="1" stop-color="#FF7749" stop-opacity="0"/>
</linearGradient>
</defs>
</svg>
