<svg width="195" height="40" viewBox="0 0 195 40" fill="none" xmlns="http://www.w3.org/2000/svg">
<path fill-rule="evenodd" clip-rule="evenodd" d="M39.4096 5.9595C39.8727 5.09713 38.8226 5.35867 38.8226 5.35867C38.8226 5.35867 31.8214 12.0792 30.8484 11.2556C29.8753 10.4321 37.7033 3.99099 36.777 2.78735C35.9199 1.6654 29.0426 9.67517 28.2164 8.69684C27.3982 7.72049 34.1055 0.710135 34.1055 0.710135C34.1055 0.710135 34.3605 -0.345273 33.5047 0.117209C22.9592 5.78821 21.6159 11.0751 21.6159 11.0751C21.6159 11.0751 21.2529 12.1048 22.0408 12.9007C22.1179 12.9699 2.80102 32.1774 0.215209 34.7704C-1.04311 36.0274 3.5738 40.5686 4.82422 39.3116C7.41069 36.7185 26.5806 17.3713 26.6498 17.4432C27.445 18.237 28.4721 17.8727 28.4721 17.8727C28.4721 17.8727 33.7504 16.5254 39.4096 5.9595Z" fill="#242424"/>
<path fill-rule="evenodd" clip-rule="evenodd" d="M19.7822 25.3687C24.9229 30.5205 33.5895 39.2029 33.5895 39.2029C33.5895 39.2029 37.3723 37.965 37.9053 34.7698L24.1527 20.9902C22.6946 22.4484 21.2377 23.9078 19.7822 25.3687Z" fill="#242424"/>
<path fill-rule="evenodd" clip-rule="evenodd" d="M13.0173 20.9035C14.8613 19.061 16.7031 17.2164 18.5427 15.3696L3.59572 0.394253C3.59572 0.394253 3.32561 0.110966 2.73071 0.708503C1.54947 1.88579 -0.735925 9.38695 8.95313 19.0905C10.4888 20.6295 11.8249 20.8429 13.0173 20.9035Z" fill="#242424"/>
<path d="M64.1845 28.6915C63.4465 28.6915 62.8525 28.4665 62.4025 28.0165C61.9525 27.5665 61.7275 26.9725 61.7275 26.2345V11.7895C61.7275 11.0515 61.9255 10.4845 62.3215 10.0885C62.7175 9.69247 63.2845 9.49446 64.0225 9.49446H73.0945C73.9045 9.49446 74.4985 9.65646 74.8765 9.98047C75.2545 10.2865 75.4435 10.7815 75.4435 11.4655C75.4435 12.1315 75.2455 12.6175 74.8495 12.9235C74.4715 13.2295 73.8865 13.3825 73.0945 13.3825H66.6145V16.8925H72.5545C73.3465 16.8925 73.9315 17.0545 74.3095 17.3785C74.7055 17.7025 74.9035 18.1975 74.9035 18.8635C74.9035 19.5295 74.7055 20.0155 74.3095 20.3215C73.9315 20.6275 73.3465 20.7805 72.5545 20.7805H66.6145V26.2345C66.6145 26.9905 66.3895 27.5935 65.9395 28.0435C65.5075 28.4755 64.9225 28.6915 64.1845 28.6915Z" fill="#242424"/>
<path d="M86.3292 28.7725C84.3852 28.7725 82.6932 28.3765 81.2532 27.5845C79.8312 26.7745 78.7332 25.6405 77.9592 24.1825C77.1852 22.7065 76.7982 20.9785 76.7982 18.9985C76.7982 17.0185 77.1852 15.2995 77.9592 13.8415C78.7332 12.3655 79.8312 11.2315 81.2532 10.4395C82.6932 9.64747 84.3852 9.25146 86.3292 9.25146C88.2732 9.25146 89.9562 9.64747 91.3782 10.4395C92.8182 11.2315 93.9162 12.3655 94.6722 13.8415C95.4462 15.2995 95.8332 17.0185 95.8332 18.9985C95.8332 20.9785 95.4462 22.7065 94.6722 24.1825C93.8982 25.6405 92.7912 26.7745 91.3512 27.5845C89.9292 28.3765 88.2552 28.7725 86.3292 28.7725ZM86.3292 24.9655C87.7692 24.9655 88.8942 24.4615 89.7042 23.4535C90.5142 22.4275 90.9192 20.9425 90.9192 18.9985C90.9192 17.0545 90.5052 15.5785 89.6772 14.5705C88.8672 13.5625 87.7512 13.0585 86.3292 13.0585C84.8892 13.0585 83.7642 13.5625 82.9542 14.5705C82.1442 15.5605 81.7392 17.0365 81.7392 18.9985C81.7392 20.9605 82.1442 22.4455 82.9542 23.4535C83.7642 24.4615 84.8892 24.9655 86.3292 24.9655Z" fill="#242424"/>
<path d="M107.818 28.7725C105.874 28.7725 104.182 28.3765 102.742 27.5845C101.32 26.7745 100.222 25.6405 99.4484 24.1825C98.6744 22.7065 98.2874 20.9785 98.2874 18.9985C98.2874 17.0185 98.6744 15.2995 99.4484 13.8415C100.222 12.3655 101.32 11.2315 102.742 10.4395C104.182 9.64747 105.874 9.25146 107.818 9.25146C109.762 9.25146 111.445 9.64747 112.867 10.4395C114.307 11.2315 115.405 12.3655 116.161 13.8415C116.935 15.2995 117.322 17.0185 117.322 18.9985C117.322 20.9785 116.935 22.7065 116.161 24.1825C115.387 25.6405 114.28 26.7745 112.84 27.5845C111.418 28.3765 109.744 28.7725 107.818 28.7725ZM107.818 24.9655C109.258 24.9655 110.383 24.4615 111.193 23.4535C112.003 22.4275 112.408 20.9425 112.408 18.9985C112.408 17.0545 111.994 15.5785 111.166 14.5705C110.356 13.5625 109.24 13.0585 107.818 13.0585C106.378 13.0585 105.253 13.5625 104.443 14.5705C103.633 15.5605 103.228 17.0365 103.228 18.9985C103.228 20.9605 103.633 22.4455 104.443 23.4535C105.253 24.4615 106.378 24.9655 107.818 24.9655Z" fill="#242424"/>
<path d="M122.558 28.5295C121.82 28.5295 121.253 28.3315 120.857 27.9355C120.461 27.5395 120.263 26.9725 120.263 26.2345V11.7895C120.263 11.0515 120.461 10.4845 120.857 10.0885C121.253 9.69247 121.82 9.49446 122.558 9.49446H128.012C130.118 9.49446 131.927 9.88146 133.439 10.6555C134.969 11.4115 136.139 12.5005 136.949 13.9225C137.759 15.3445 138.164 17.0365 138.164 18.9985C138.164 20.9785 137.759 22.6885 136.949 24.1285C136.157 25.5505 134.996 26.6395 133.466 27.3955C131.954 28.1515 130.136 28.5295 128.012 28.5295H122.558ZM127.661 24.5335C129.515 24.5335 130.901 24.0835 131.819 23.1835C132.755 22.2655 133.223 20.8705 133.223 18.9985C133.223 17.1265 132.755 15.7405 131.819 14.8405C130.901 13.9405 129.515 13.4905 127.661 13.4905H125.231V24.5335H127.661Z" fill="#242424"/>
<path d="M143.603 28.6915C142.847 28.6915 142.244 28.4755 141.794 28.0435C141.362 27.5935 141.146 26.9905 141.146 26.2345V11.7895C141.146 11.0515 141.344 10.4845 141.74 10.0885C142.136 9.69247 142.703 9.49446 143.441 9.49446H150.353C152.459 9.49446 154.097 10.0345 155.267 11.1145C156.437 12.1765 157.022 13.6615 157.022 15.5695C157.022 17.4595 156.428 18.9445 155.24 20.0245C154.07 21.1045 152.441 21.6445 150.353 21.6445H146.114V26.2345C146.114 26.9905 145.889 27.5935 145.439 28.0435C144.989 28.4755 144.377 28.6915 143.603 28.6915ZM149.678 17.9185C150.596 17.9185 151.271 17.7295 151.703 17.3515C152.153 16.9735 152.378 16.3885 152.378 15.5965C152.378 14.0305 151.478 13.2475 149.678 13.2475H146.114V17.9185H149.678Z" fill="#242424"/>
<path d="M175.429 25.3705C175.753 25.8565 175.915 26.3155 175.915 26.7475C175.915 27.3235 175.672 27.8095 175.186 28.2055C174.718 28.5835 174.169 28.7725 173.539 28.7725C173.107 28.7725 172.702 28.6735 172.324 28.4755C171.946 28.2775 171.622 27.9805 171.352 27.5845L167.842 22.4545C167.59 22.0945 167.32 21.8335 167.032 21.6715C166.762 21.4915 166.438 21.4015 166.06 21.4015H164.305V26.2345C164.305 26.9905 164.089 27.5935 163.657 28.0435C163.225 28.4755 162.631 28.6915 161.875 28.6915C161.119 28.6915 160.516 28.4755 160.066 28.0435C159.634 27.5935 159.418 26.9905 159.418 26.2345V11.7895C159.418 11.0515 159.616 10.4845 160.012 10.0885C160.408 9.69247 160.975 9.49446 161.713 9.49446H168.49C170.794 9.49446 172.522 9.99846 173.674 11.0065C174.844 11.9965 175.429 13.4365 175.429 15.3265C175.429 16.7665 175.033 17.9905 174.241 18.9985C173.449 19.9885 172.333 20.6545 170.893 20.9965C171.487 21.0865 172 21.2845 172.432 21.5905C172.882 21.8965 173.323 22.3555 173.755 22.9675L175.429 25.3705ZM167.707 17.6755C168.805 17.6755 169.588 17.5045 170.056 17.1625C170.542 16.8205 170.785 16.2625 170.785 15.4885C170.785 14.6965 170.542 14.1295 170.056 13.7875C169.588 13.4275 168.805 13.2475 167.707 13.2475H164.251V17.6755H167.707Z" fill="#242424"/>
<path d="M180.965 28.6915C180.209 28.6915 179.606 28.4755 179.156 28.0435C178.724 27.5935 178.508 26.9905 178.508 26.2345V11.7895C178.508 11.0515 178.706 10.4845 179.102 10.0885C179.498 9.69247 180.065 9.49446 180.803 9.49446H187.715C189.821 9.49446 191.459 10.0345 192.629 11.1145C193.799 12.1765 194.384 13.6615 194.384 15.5695C194.384 17.4595 193.79 18.9445 192.602 20.0245C191.432 21.1045 189.803 21.6445 187.715 21.6445H183.476V26.2345C183.476 26.9905 183.251 27.5935 182.801 28.0435C182.351 28.4755 181.739 28.6915 180.965 28.6915ZM187.04 17.9185C187.958 17.9185 188.633 17.7295 189.065 17.3515C189.515 16.9735 189.74 16.3885 189.74 15.5965C189.74 14.0305 188.84 13.2475 187.04 13.2475H183.476V17.9185H187.04Z" fill="#242424"/>
</svg>
