<svg width="25" height="25" viewBox="0 0 25 25" fill="none" xmlns="http://www.w3.org/2000/svg">
<path d="M14.5155 24.9871L14.4963 22.1409C14.4963 19.8503 17.2147 20.6819 16.8023 17.1178L16.0351 3.80616C16.0099 3.20973 15.2931 3.19864 15.3151 3.79532L15.1984 15.1938C15.1391 16.1226 14.0374 15.9689 14.0724 14.9924L13.9308 3.78253C13.9308 3.11358 13.2345 3.24869 13.228 3.83194L13.038 15.2659C13.0158 15.9943 11.9383 15.9235 11.9609 15.2317L11.7995 3.76427C11.7995 3.24669 11.1359 3.19566 11.122 3.70274L10.928 15.2817C10.8762 16.0726 9.81206 15.9662 9.86718 15.1121L9.73393 3.79688C9.74248 3.15802 9.0872 3.19146 9.05698 3.79688L8.18852 17.6763C8.16811 20.6654 10.4909 19.7207 10.5436 22.2753L10.5407 25C2.06416 23.69 -2.80938 13.963 1.74003 6.18599C6.61005 -2.1391 18.6582 -2.04193 23.3746 6.36041C27.731 14.1213 22.8417 23.6398 14.5155 24.9871Z" fill="#292F36"/>
</svg>
