<svg width="26" height="26" viewBox="0 0 26 26" fill="none" xmlns="http://www.w3.org/2000/svg">
<path d="M18.2 0H7.8C3.4983 0 0 3.4983 0 7.8V24.7C0 25.0448 0.136964 25.3754 0.380761 25.6192C0.624558 25.863 0.955219 26 1.3 26H18.2C22.5017 26 26 22.5017 26 18.2V7.8C26 3.4983 22.5017 0 18.2 0Z" fill="#FF7749"/>
<path d="M18.2 0H7.8C3.4983 0 0 3.4983 0 7.8V24.7C0 25.0448 0.136964 25.3754 0.380761 25.6192C0.624558 25.863 0.955219 26 1.3 26H18.2C22.5017 26 26 22.5017 26 18.2V7.8C26 3.4983 22.5017 0 18.2 0Z" fill="url(#paint0_linear)"/>
<path d="M17.8283 8.07629C18.0572 7.85836 18.3618 7.73788 18.6779 7.74027C18.9939 7.74266 19.2967 7.86774 19.5223 8.08911C19.7478 8.31048 19.8786 8.61082 19.887 8.92677C19.8953 9.24272 19.7806 9.54956 19.567 9.78254L13.0833 17.8913C12.9718 18.0114 12.8372 18.1077 12.6876 18.1746C12.5381 18.2415 12.3765 18.2776 12.2127 18.2806C12.0489 18.2836 11.8861 18.2536 11.7341 18.1923C11.5822 18.131 11.4441 18.0397 11.3283 17.9238L7.02853 13.624C6.90879 13.5125 6.81274 13.3779 6.74613 13.2284C6.67952 13.0789 6.6437 12.9175 6.64081 12.7539C6.63793 12.5902 6.66803 12.4277 6.72933 12.2759C6.79062 12.1242 6.88186 11.9863 6.99759 11.8706C7.11332 11.7549 7.25117 11.6636 7.40293 11.6023C7.55469 11.541 7.71723 11.5109 7.88088 11.5138C8.04452 11.5167 8.2059 11.5525 8.3554 11.6191C8.5049 11.6858 8.63945 11.7818 8.75103 11.9015L12.1538 15.3027L17.7974 8.11204C17.8076 8.09953 17.8184 8.08759 17.8299 8.07629H17.8283Z" fill="white"/>
<defs>
<linearGradient id="paint0_linear" x1="24.5556" y1="1.69565" x2="6.88098" y2="30.258" gradientUnits="userSpaceOnUse">
<stop stop-color="#F52872" stop-opacity="0.3"/>
<stop offset="1" stop-color="#FF7749" stop-opacity="0"/>
</linearGradient>
</defs>
</svg>
